<svg xmlns="http://www.w3.org/2000/svg" xmlns:xlink="http://www.w3.org/1999/xlink" width="500" zoomAndPan="magnify" viewBox="0 0 375 374.999991" height="500" preserveAspectRatio="xMidYMid meet" version="1.0"><defs><g/><clipPath id="1476b101ce"><path d="M 4.765625 44.738281 L 370.015625 44.738281 L 370.015625 330.488281 L 4.765625 330.488281 Z M 4.765625 44.738281 " clip-rule="nonzero"/></clipPath></defs><g fill="#000000" fill-opacity="1"><g transform="translate(76.448445, 113.795933)"><g><path d="M 2.28125 -2.796875 C 2.28125 -3.890625 2.570312 -4.710938 3.15625 -5.265625 C 3.75 -5.828125 4.601562 -6.109375 5.71875 -6.109375 C 6.800781 -6.109375 7.640625 -5.820312 8.234375 -5.25 C 8.828125 -4.675781 9.125 -3.859375 9.125 -2.796875 C 9.125 -1.765625 8.820312 -0.953125 8.21875 -0.359375 C 7.625 0.234375 6.789062 0.53125 5.71875 0.53125 C 4.625 0.53125 3.773438 0.238281 3.171875 -0.34375 C 2.578125 -0.925781 2.28125 -1.742188 2.28125 -2.796875 Z M 2.28125 -2.796875 "/></g></g></g><g clip-path="url(#1476b101ce)"><path fill="#ffffff" d="M 255.335938 330.207031 L 190.378906 330.207031 L 174.746094 191.335938 L 139.46875 330.207031 L 117.707031 330.207031 L 85.359375 191.335938 L 67.636719 330.207031 L 4.765625 330.207031 L 55.882812 44.75 L 108.898438 44.75 L 130.046875 202.71875 L 154.183594 44.75 L 207.328125 44.75 Z M 356.558594 147.027344 C 365.699219 129.285156 370.265625 109.671875 370.265625 88.179688 L 370.265625 44.75 L 304.421875 44.75 L 304.421875 68.917969 C 304.421875 93.089844 302.839844 111.945312 299.695312 125.488281 C 296.539062 139.03125 291.71875 149.945312 285.214844 158.234375 C 282.265625 161.976562 276.945312 166.113281 269.261719 170.664062 L 269.261719 44.75 L 220.019531 44.75 L 268.03125 330.207031 L 269.261719 330.207031 L 269.261719 196.238281 C 275.957031 197.875 280.988281 200.445312 284.335938 203.941406 C 290.828125 210.246094 295.808594 221.308594 299.246094 237.128906 C 302.691406 252.953125 304.421875 271.839844 304.421875 293.789062 L 304.421875 330.207031 L 370.265625 330.207031 L 370.265625 287.832031 C 370.265625 254.671875 366.585938 230.332031 359.242188 214.796875 C 351.890625 199.273438 341.660156 187.417969 328.554688 179.246094 C 341.0625 169.5625 350.398438 158.820312 356.558594 147.027344 Z M 356.558594 147.027344 " fill-opacity="1" fill-rule="nonzero"/></g></svg>